M48
; #@! TF.GenerationSoftware,LibrePCB,LibrePCB,1.0.0
; #@! TF.CreationDate,2024-03-25T10:59:42
; #@! TF.ProjectId,coco2 ps2 marriage,d66203e6-877b-4e41-8959-41fb69d6a211,v1
; #@! TF.Part,Single
; #@! TF.SameCoordinates
; #@! TF.FileFunction,Plated,1,2,PTH
FMAT,2
METRIC,TZ
; #@! TA.AperFunction,ComponentDrill
T1C0.8
%
G90
G05
M71
T1
X72.39Y49.37125
X67.31Y49.37125
X62.23Y41.75125
X64.77Y49.37125
X64.77Y41.75125
X57.15Y49.37125
X62.23Y49.37125
X72.39Y41.75125
X59.69Y49.37125
X57.15Y41.75125
X59.69Y41.75125
X69.85Y41.75125
X54.61Y41.75125
X69.85Y49.37125
X54.61Y49.37125
X67.31Y41.75125
X81.12125Y28.09875
X88.74125Y35.71875
X91.28125Y35.71875
X86.20125Y35.71875
X96.36125Y35.71875
X96.36125Y28.09875
X83.66125Y28.09875
X81.12125Y35.71875
X91.28125Y28.09875
X83.66125Y35.71875
X93.82125Y28.09875
X88.74125Y28.09875
X93.82125Y35.71875
X86.20125Y28.09875
X72.39Y11.1125
X72.39Y8.5725
X72.23125Y59.69
X72.23125Y62.23
X72.23125Y57.15
X21.59Y17.62125
X26.67Y17.62125
X31.75Y25.24125
X29.21Y17.62125
X29.21Y25.24125
X36.83Y17.62125
X31.75Y17.62125
X21.59Y25.24125
X34.29Y17.62125
X36.83Y25.24125
X34.29Y25.24125
X24.13Y25.24125
X39.37Y25.24125
X24.13Y17.62125
X39.37Y17.62125
X26.67Y25.24125
X43.02125Y88.5825
X43.02125Y78.4225
X59.055Y64.77
X59.055Y54.61
X50.00625Y0.47625
X57.62625Y8.09625
X60.16625Y8.09625
X55.08625Y8.09625
X65.24625Y8.09625
X65.24625Y0.47625
X52.54625Y0.47625
X50.00625Y8.09625
X60.16625Y0.47625
X52.54625Y8.09625
X62.70625Y0.47625
X57.62625Y0.47625
X62.70625Y8.09625
X55.08625Y0.47625
X66.51625Y64.77
X66.51625Y54.61
X85.24875Y64.77
X85.24875Y54.61
X96.8375Y5.23875
X96.8375Y2.69875
X53.6575Y59.69
X53.6575Y62.23
X53.6575Y57.15
X14.2875Y28.575
X6.6675Y36.195
X6.6675Y38.735
X6.6675Y33.655
X6.6675Y43.815
X14.2875Y43.815
X14.2875Y31.115
X6.6675Y28.575
X14.2875Y38.735
X6.6675Y31.115
X14.2875Y41.275
X14.2875Y36.195
X6.6675Y41.275
X14.2875Y33.655
X62.865Y64.77
X62.865Y54.61
X39.6875Y88.5825
X39.6875Y78.4225
X81.43875Y64.77
X81.43875Y54.61
X72.54875Y73.66
X72.54875Y76.2
X72.54875Y71.12
X14.76375Y85.24875
X9.68375Y85.24875
X7.14375Y85.24875
X17.30375Y85.24875
X24.92375Y85.24875
X12.22375Y85.24875
X22.38375Y85.24875
X19.84375Y85.24875
X94.77375Y73.66
X94.77375Y76.2
X94.77375Y71.12
X38.4175Y50.4825
X35.8775Y50.4825
X40.9575Y50.4825
X30.7975Y50.4825
X43.4975Y41.5925
X46.0375Y41.5925
X30.7975Y41.5925
X33.3375Y50.4825
X38.4175Y41.5925
X46.0375Y50.4825
X40.9575Y41.5925
X35.8775Y41.5925
X43.4975Y50.4825
X33.3375Y41.5925
X89.2175Y64.77
X89.2175Y54.61
X87.47125Y73.66
X87.47125Y76.2
X87.47125Y71.12
X34.29Y35.8775
X36.83Y35.8775
X64.77Y35.8775
X72.39Y35.8775
X49.53Y35.8775
X39.37Y35.8775
X44.45Y35.8775
X46.99Y35.8775
X62.23Y35.8775
X54.61Y35.8775
X57.15Y35.8775
X41.91Y35.8775
X59.69Y35.8775
X67.31Y35.8775
X52.07Y35.8775
X69.85Y35.8775
X80.01Y73.66
X80.01Y76.2
X80.01Y71.12
X78.58125Y13.97
X83.66125Y13.97
X88.74125Y21.59
X86.20125Y13.97
X86.20125Y21.59
X93.82125Y13.97
X88.74125Y13.97
X78.58125Y21.59
X91.28125Y13.97
X93.82125Y21.59
X91.28125Y21.59
X81.12125Y21.59
X96.36125Y21.59
X81.12125Y13.97
X96.36125Y13.97
X83.66125Y21.59
X45.24375Y57.4675
X37.62375Y65.0875
X37.62375Y67.6275
X37.62375Y62.5475
X37.62375Y72.7075
X45.24375Y72.7075
X45.24375Y60.0075
X37.62375Y57.4675
X45.24375Y67.6275
X37.62375Y60.0075
X45.24375Y70.1675
X45.24375Y65.0875
X37.62375Y70.1675
X45.24375Y62.5475
X59.055Y78.74
X59.055Y68.58
X65.0875Y73.66
X65.0875Y76.2
X65.0875Y71.12
X46.355Y88.5825
X46.355Y78.4225
X53.6575Y73.66
X53.6575Y76.2
X53.6575Y71.12
X89.2175Y0.47625
X84.1375Y0.47625
X86.6775Y0.47625
X81.5975Y0.47625
X16.1925Y11.1125
X16.1925Y8.5725
X6.6675Y65.0875
X6.6675Y62.5475
X6.6675Y67.6275
X6.6675Y57.4675
X15.5575Y70.1675
X15.5575Y72.7075
X15.5575Y57.4675
X6.6675Y60.0075
X15.5575Y65.0875
X6.6675Y72.7075
X15.5575Y67.6275
X15.5575Y62.5475
X6.6675Y70.1675
X15.5575Y60.0075
X96.36125Y49.37125
X91.28125Y49.37125
X86.20125Y41.75125
X88.74125Y49.37125
X88.74125Y41.75125
X81.12125Y49.37125
X86.20125Y49.37125
X96.36125Y41.75125
X83.66125Y49.37125
X81.12125Y41.75125
X83.66125Y41.75125
X93.82125Y41.75125
X78.58125Y41.75125
X93.82125Y49.37125
X78.58125Y49.37125
X91.28125Y41.75125
X77.62875Y64.77
X77.62875Y54.61
X33.17875Y83.5025
X33.17875Y80.9625
X33.17875Y86.0425
X21.9075Y65.24625
X21.9075Y62.70625
X21.9075Y67.78625
X21.9075Y57.62625
X30.7975Y70.32625
X30.7975Y72.86625
X30.7975Y57.62625
X21.9075Y60.16625
X30.7975Y65.24625
X21.9075Y72.86625
X30.7975Y67.78625
X30.7975Y62.70625
X21.9075Y70.32625
X30.7975Y60.16625
X26.19375Y0.47625
X33.81375Y8.09625
X36.35375Y8.09625
X31.27375Y8.09625
X41.43375Y8.09625
X41.43375Y0.47625
X28.73375Y0.47625
X26.19375Y8.09625
X36.35375Y0.47625
X28.73375Y8.09625
X38.89375Y0.47625
X33.81375Y0.47625
X38.89375Y8.09625
X31.27375Y0.47625
X63.8175Y85.09
X58.7375Y85.09
X56.1975Y85.09
X66.3575Y85.09
X73.9775Y85.09
X61.2775Y85.09
X71.4375Y85.09
X68.8975Y85.09
X50.00625Y17.62125
X55.08625Y17.62125
X60.16625Y25.24125
X57.62625Y17.62125
X57.62625Y25.24125
X65.24625Y17.62125
X60.16625Y17.62125
X50.00625Y25.24125
X62.70625Y17.62125
X65.24625Y25.24125
X62.70625Y25.24125
X52.54625Y25.24125
X67.78625Y25.24125
X52.54625Y17.62125
X67.78625Y17.62125
X55.08625Y25.24125
T0
M30
